<?xml version="1.0" encoding="UTF-8" standalone="no"?>
<svg
   inkscape:version="1.2.2 (b0a8486541, 2022-12-01)"
   sodipodi:docname="org.xfce.volman.svg"
   width="48"
   height="48"
   id="svg11300"
   version="1.0"
   style="display:inline;enable-background:new"
   viewBox="0 0 48 48"
   inkscape:export-filename="org.xfce.volman.png"
   inkscape:export-xdpi="96"
   inkscape:export-ydpi="96"
   xmlns:inkscape="http://www.inkscape.org/namespaces/inkscape"
   xmlns:sodipodi="http://sodipodi.sourceforge.net/DTD/sodipodi-0.dtd"
   xmlns="http://www.w3.org/2000/svg"
   xmlns:svg="http://www.w3.org/2000/svg"
   xmlns:rdf="http://www.w3.org/1999/02/22-rdf-syntax-ns#"
   xmlns:cc="http://creativecommons.org/ns#"
   xmlns:dc="http://purl.org/dc/elements/1.1/">
  <sodipodi:namedview
     inkscape:document-rotation="0"
     showguides="false"
     inkscape:current-layer="svg11300"
     inkscape:window-maximized="0"
     inkscape:window-y="64"
     inkscape:window-x="596"
     inkscape:cy="21.058524"
     inkscape:cx="23.577592"
     inkscape:zoom="22.627417"
     showgrid="false"
     id="namedview35"
     inkscape:window-height="916"
     inkscape:window-width="1322"
     inkscape:pageshadow="2"
     inkscape:pageopacity="0"
     guidetolerance="10"
     gridtolerance="10"
     objecttolerance="10"
     borderopacity="1"
     bordercolor="#666666"
     pagecolor="#ffffff"
     inkscape:showpageshadow="2"
     inkscape:pagecheckerboard="0"
     inkscape:deskcolor="#d1d1d1">
    <inkscape:grid
       empspacing="4"
       id="grid858"
       type="xygrid"
       originx="0"
       originy="0" />
  </sodipodi:namedview>
  <title
     id="title4162">Adwaita Icon Template</title>
  <defs
     id="defs3" />
  <metadata
     id="metadata4">
    <rdf:RDF>
      <cc:Work
         rdf:about="">
        <dc:title>Adwaita Icon Template</dc:title>
      </cc:Work>
    </rdf:RDF>
  </metadata>
  <rect
     y="32"
     x="13"
     height="3"
     width="22"
     id="rect1364"
     style="display:inline;fill:#006888;fill-rule:evenodd;stroke:none;stroke-width:1;stroke-dasharray:none;enable-background:new" />
  <rect
     style="fill:none;fill-opacity:1;fill-rule:evenodd;stroke:#003445;stroke-width:0.999999;stroke-linecap:round;stroke-linejoin:round;stroke-dasharray:none;stroke-opacity:1;stop-color:#000000"
     id="rect5299"
     width="23"
     height="9.000001"
     x="12.5"
     y="26.5"
     rx="2"
     ry="2" />
  <rect
     style="fill:#00aade;fill-opacity:1;fill-rule:evenodd;stroke:none;stroke-width:0.999996;stroke-linecap:round;stroke-linejoin:round;stroke-opacity:1;stop-color:#000000"
     id="rect1435"
     width="22"
     height="26"
     x="13"
     y="4" />
  <path
     style="display:inline;fill:#003445;fill-opacity:1;fill-rule:evenodd;stroke:none;stroke-width:1px;stroke-linecap:butt;stroke-linejoin:miter;stroke-opacity:1;enable-background:new"
     sodipodi:nodetypes="ccccccccsccsccccscccccccccccccccccc"
     id="path10932"
     d="m 24.49999,8 h -1 L 21,12 h 1.99999 v 6.00001 h -3 v -1.27148 c 0.61771,-0.35663 0.99874,-1.01525 1,-1.72852 0,-1.10457 -0.89543,-2 -2,-2 -1.10457,0 -2,0.89543 -2,2 5.6e-4,0.71397 0.38169,1.37349 1,1.73047 v 1.26953 c 0,2 2,2 2,2 h 3 v 2.271705 c -0.61771,0.35663 -0.99874,1.01525 -1,1.72852 0,1.10457 0.89543,2 2,2 1.10457,0 2,-0.89543 2,-2 -5.6e-4,-0.71397 -0.38169,-1.37349 -1,-1.73047 V 20.00001 h 3 c 0,0 2,0 2,-2 v -1 c 0,0 1.125,-0.1875 1,-1 v -2 c 0.125,-1.125 -1,-1 -1,-1 h -2 c -1.0625,0 -1,1 -1,1 v 2 c 0,1 1,1 1,1 v 1 h -3 V 12 H 27 Z"
     inkscape:connector-curvature="0" />
  <rect
     y="31.500002"
     x="16.5"
     height="13.000001"
     width="15"
     id="rect974-7"
     style="display:inline;opacity:1;fill:#d2d8dc;fill-opacity:1;stroke:#758087;stroke-width:1;stroke-linecap:butt;stroke-linejoin:miter;stroke-miterlimit:4;stroke-dasharray:none;stroke-dashoffset:0;stroke-opacity:1;marker:none;marker-start:none;marker-mid:none;marker-end:none;paint-order:normal;enable-background:new"
     rx="1.5"
     ry="1.5" />
  <rect
     y="28.999998"
     x="13"
     height="4"
     width="22"
     id="rect981-35"
     style="display:inline;fill:#006888;fill-rule:evenodd;stroke:none;stroke-width:0.999994;stroke-dasharray:none;enable-background:new" />
  <rect
     y="32"
     x="15"
     height="1"
     width="18"
     id="rect325"
     style="display:inline;opacity:1;fill:#070c0f;fill-opacity:1;stroke:none;stroke-width:0.999996;stroke-linecap:butt;stroke-linejoin:miter;stroke-miterlimit:4;stroke-dasharray:none;stroke-dashoffset:0;stroke-opacity:1;marker:none;marker-start:none;marker-mid:none;marker-end:none;paint-order:normal;enable-background:new" />
  <path
     id="rect1249"
     style="color:#000000;display:inline;fill:#006888;fill-rule:evenodd;stroke-linecap:round;stroke-linejoin:round;-inkscape-stroke:none;enable-background:new"
     d="m 15,3 c -1.653347,0 -3,1.3466525 -3,3 v 23 h 1 V 6 c 0,-1.1166469 0.883353,-2 2,-2 h 18 c 1.116647,0 2,0.8833531 2,2 v 23 h 1 V 6 C 36,4.3466525 34.653347,3 33,3 Z"
     sodipodi:nodetypes="ssccssssccsss" />
  <rect
     style="display:inline;opacity:1;fill:#bcc5ca;fill-opacity:1;stroke:none;stroke-width:0.999996;stroke-linecap:butt;stroke-linejoin:miter;stroke-miterlimit:4;stroke-dasharray:none;stroke-dashoffset:0;stroke-opacity:1;marker:none;marker-start:none;marker-mid:none;marker-end:none;paint-order:normal;enable-background:new"
     id="rect972-3"
     width="14"
     height="3"
     x="17"
     y="41"
     rx="1"
     ry="1" />
  <rect
     ry="0.25"
     rx="0.25"
     y="36"
     x="26"
     height="3"
     width="3"
     id="rect974-36-7-6"
     style="display:inline;opacity:1;fill:#344958;fill-opacity:1;stroke:none;stroke-width:1;stroke-linecap:butt;stroke-linejoin:miter;stroke-miterlimit:4;stroke-dasharray:none;stroke-dashoffset:0;stroke-opacity:1;marker:none;marker-start:none;marker-mid:none;marker-end:none;paint-order:normal;enable-background:new" />
  <rect
     ry="0"
     y="33"
     x="15"
     height="2"
     width="1"
     id="rect584"
     style="display:inline;opacity:1;fill:#070c0f;fill-opacity:1;stroke:none;stroke-width:0.999996;stroke-linecap:butt;stroke-linejoin:miter;stroke-miterlimit:4;stroke-dasharray:none;stroke-dashoffset:0;stroke-opacity:1;marker:none;marker-start:none;marker-mid:none;marker-end:none;paint-order:normal;enable-background:new" />
  <rect
     ry="0"
     y="42"
     x="18"
     height="1"
     width="12"
     id="rect974-36-5-2"
     style="display:inline;opacity:1;fill:#070c0f;fill-opacity:1;stroke:none;stroke-width:1;stroke-linecap:butt;stroke-linejoin:miter;stroke-miterlimit:4;stroke-dasharray:none;stroke-dashoffset:0;stroke-opacity:1;marker:none;marker-start:none;marker-mid:none;marker-end:none;paint-order:normal;enable-background:new" />
  <rect
     ry="0"
     y="33"
     x="32"
     height="2"
     width="1"
     id="rect586"
     style="display:inline;opacity:1;fill:#070c0f;fill-opacity:1;stroke:none;stroke-width:0.999996;stroke-linecap:butt;stroke-linejoin:miter;stroke-miterlimit:4;stroke-dasharray:none;stroke-dashoffset:0;stroke-opacity:1;marker:none;marker-start:none;marker-mid:none;marker-end:none;paint-order:normal;enable-background:new" />
  <rect
     style="display:inline;opacity:1;fill:#344958;fill-opacity:1;stroke:none;stroke-width:1;stroke-linecap:butt;stroke-linejoin:miter;stroke-miterlimit:4;stroke-dasharray:none;stroke-dashoffset:0;stroke-opacity:1;marker:none;marker-start:none;marker-mid:none;marker-end:none;paint-order:normal;enable-background:new"
     id="rect974-36-7-3"
     width="3"
     height="3"
     x="19"
     y="36"
     rx="0.25"
     ry="0.25" />
  <rect
     style="display:inline;opacity:1;fill:#a7b0b7;fill-opacity:1;stroke:none;stroke-width:0.999994;stroke-linecap:butt;stroke-linejoin:miter;stroke-miterlimit:4;stroke-dasharray:none;stroke-dashoffset:0;stroke-opacity:1;marker:none;marker-start:none;marker-mid:none;marker-end:none;paint-order:normal;enable-background:new"
     id="rect8709"
     width="14"
     height="1"
     x="17"
     y="41" />
</svg>
